<svg width="177" height="140" viewBox="0 0 177 140" fill="none" xmlns="http://www.w3.org/2000/svg">
<g clip-path="url(#clip0_4307_17)">
<path d="M88.4462 8.03823C76.4342 8.04328 64.4577 6.73413 52.7304 4.13413C49.4188 3.4109 45.9572 3.91673 42.991 5.55731C40.0249 7.19789 37.7566 9.86124 36.6091 13.0508L1.00413 111.281C0.344463 113.096 0.0670271 115.027 0.189215 116.953C0.311403 118.88 0.83056 120.76 1.71414 122.476C2.59773 124.193 3.82664 125.708 5.32367 126.926C6.82071 128.145 8.55357 129.041 10.4134 129.558C61.5078 143.45 115.385 143.45 166.479 129.558C168.339 129.041 170.072 128.145 171.569 126.926C173.066 125.708 174.295 124.193 175.178 122.476C176.062 120.76 176.581 118.88 176.703 116.953C176.825 115.027 176.548 113.096 175.888 111.281L140.271 13.0508C139.124 9.86378 136.857 7.20234 133.894 5.56199C130.93 3.92165 127.472 3.41419 124.162 4.13413C112.435 6.73413 100.458 8.04328 88.4462 8.03823V8.03823Z" fill="#D8DBE8"/>
<path d="M88.2851 4.22573C76.2731 4.23078 64.2966 2.92163 52.5693 0.321626C49.2577 -0.401603 45.7961 0.104232 42.8299 1.74481C39.8637 3.38539 37.5954 6.04874 36.4479 9.23826L0.842996 107.469C0.18333 109.283 -0.0941058 111.214 0.0280824 113.141C0.150271 115.067 0.669427 116.948 1.55301 118.664C2.43659 120.38 3.6655 121.895 5.16254 123.114C6.65958 124.333 8.39244 125.229 10.2523 125.746C61.3467 139.638 115.223 139.638 166.318 125.746C168.178 125.229 169.911 124.333 171.408 123.114C172.905 121.895 174.134 120.38 175.017 118.664C175.901 116.948 176.42 115.067 176.542 113.141C176.664 111.214 176.387 109.283 175.727 107.469L140.11 9.23826C138.963 6.05128 136.696 3.38984 133.733 1.74949C130.769 0.109146 127.311 -0.398307 124.001 0.321626C112.274 2.92163 100.297 4.23078 88.2851 4.22573V4.22573Z" fill="white"/>
<path d="M88.2851 4.22573C76.2731 4.23078 64.2966 2.92163 52.5693 0.321626C49.2577 -0.401603 45.7961 0.104232 42.8299 1.74481C39.8637 3.38539 37.5954 6.04874 36.4479 9.23826L0.842996 107.469C0.18333 109.283 -0.0941058 111.214 0.0280824 113.141C0.150271 115.067 0.669427 116.948 1.55301 118.664C2.43659 120.38 3.6655 121.895 5.16254 123.114C6.65958 124.333 8.39244 125.229 10.2523 125.746C61.3467 139.638 115.223 139.638 166.318 125.746C168.178 125.229 169.911 124.333 171.408 123.114C172.905 121.895 174.134 120.38 175.017 118.664C175.901 116.948 176.42 115.067 176.542 113.141C176.664 111.214 176.387 109.283 175.727 107.469L140.11 9.23826C138.963 6.05128 136.696 3.38984 133.733 1.74949C130.769 0.109146 127.311 -0.398307 124.001 0.321626C112.274 2.92163 100.297 4.23078 88.2851 4.22573V4.22573Z" fill="#D45B07"/>
</g>
<defs>
<clipPath id="clip0_4307_17">
<rect width="176.57" height="140" fill="white"/>
</clipPath>
</defs>
</svg>
