<svg width="149" height="146" viewBox="0 0 149 146" fill="none" xmlns="http://www.w3.org/2000/svg">
<g clip-path="url(#clip0_4306_12)">
<path d="M118.915 3.88037H14.2705C12.3331 3.87939 10.4164 4.29018 8.64119 5.08689C6.86597 5.88359 5.27064 7.04896 3.9556 8.50963C2.64057 9.9703 1.63431 11.6946 1.00019 13.5741C0.366063 15.4536 0.117793 17.4474 0.271017 19.4302C3.48965 60.9152 15.0206 101.27 34.1411 137.966C35.0568 139.716 36.3152 141.253 37.8373 142.479C39.3594 143.705 41.1122 144.595 42.9855 145.092C44.8588 145.589 46.812 145.683 48.7224 145.368C50.6327 145.052 52.4588 144.334 54.0857 143.259L142.104 85.2006C144.982 83.2866 147.082 80.3612 148.01 76.9721C148.939 73.5831 148.632 69.9628 147.148 66.789C139.821 50.9152 134.98 33.9537 132.803 16.5305C132.378 13.0506 130.735 9.84822 128.179 7.52065C125.624 5.19309 122.331 3.89922 118.915 3.88037V3.88037Z" fill="#D8DBE8"/>
<path d="M118.688 1.77288e-06H14.0434C12.106 -0.000984817 10.1894 0.409809 8.41414 1.20652C6.63892 2.00322 5.04359 3.16859 3.72855 4.62926C2.41352 6.08993 1.40726 7.81426 0.773137 9.69373C0.139012 11.5732 -0.109258 13.5671 0.043966 15.5499C3.2626 57.0348 14.7936 97.39 33.9141 134.086C34.8297 135.836 36.0882 137.372 37.6103 138.599C39.1324 139.825 40.8852 140.715 42.7585 141.212C44.6318 141.709 46.585 141.803 48.4953 141.487C50.4056 141.172 52.2317 140.454 53.8587 139.379L141.877 81.3202C144.755 79.4062 146.855 76.4808 147.783 73.0918C148.712 69.7027 148.405 66.0824 146.921 62.9086C139.594 47.0348 134.753 30.0733 132.576 12.6501C132.151 9.17021 130.508 5.96785 127.952 3.64028C125.397 1.31272 122.104 0.0188484 118.688 1.77288e-06V1.77288e-06Z" fill="white"/>
<path d="M118.688 1.77288e-06H14.0434C12.106 -0.000984817 10.1894 0.409809 8.41414 1.20652C6.63892 2.00322 5.04359 3.16859 3.72855 4.62926C2.41352 6.08993 1.40726 7.81426 0.773137 9.69373C0.139012 11.5732 -0.109258 13.5671 0.043966 15.5499C3.2626 57.0348 14.7936 97.39 33.9141 134.086C34.8297 135.836 36.0882 137.372 37.6103 138.599C39.1324 139.825 40.8852 140.715 42.7585 141.212C44.6318 141.709 46.585 141.803 48.4953 141.487C50.4056 141.172 52.2317 140.454 53.8587 139.379L141.877 81.3202C144.755 79.4062 146.855 76.4808 147.783 73.0918C148.712 69.7027 148.405 66.0824 146.921 62.9086C139.594 47.0348 134.753 30.0733 132.576 12.6501C132.151 9.17021 130.508 5.96785 127.952 3.64028C125.397 1.31272 122.104 0.0188484 118.688 1.77288e-06V1.77288e-06Z" fill="#FBA11D"/>
</g>
<defs>
<clipPath id="clip0_4306_12">
<rect width="148.55" height="146" fill="white"/>
</clipPath>
</defs>
</svg>
