<svg width="177" height="138" viewBox="0 0 177 138" fill="none" xmlns="http://www.w3.org/2000/svg">
<path d="M88.5497 5.19741C76.5377 5.20246 64.5612 3.89331 52.834 1.29331C49.5223 0.570077 46.0607 1.07591 43.0946 2.71649C40.1284 4.35707 37.8601 7.02042 36.7126 10.2099L1.10764 108.441C0.447979 110.255 0.170543 112.186 0.292731 114.112C0.414919 116.039 0.934075 117.919 1.81766 119.635C2.70124 121.352 3.93015 122.867 5.42719 124.086C6.92423 125.304 8.65709 126.2 10.5169 126.717C61.6113 140.61 115.488 140.61 166.583 126.717C168.442 126.2 170.175 125.304 171.672 124.086C173.169 122.867 174.398 121.352 175.282 119.635C176.165 117.919 176.685 116.039 176.807 114.112C176.929 112.186 176.651 110.255 175.992 108.441L140.375 10.2099C139.227 7.02296 136.961 4.36152 133.997 2.72117C131.034 1.08083 127.575 0.573373 124.266 1.29331C112.538 3.89331 100.562 5.20246 88.5497 5.19741Z" fill="#D8DBE8"/>
</svg>
