<svg width="171" height="174" viewBox="0 0 171 174" fill="none" xmlns="http://www.w3.org/2000/svg">
<g clip-path="url(#clip0_4306_13)">
<path d="M94.3281 5.89958L6.44269 62.3551C4.81235 63.402 3.41678 64.7755 2.34408 66.389C1.27139 68.0024 0.544875 69.8207 0.210411 71.7292C-0.124052 73.6376 -0.0592056 75.5946 0.400872 77.4767C0.86095 79.3587 1.70626 81.125 2.88342 82.6639C32.3336 121.191 70.7754 151.916 114.846 172.15C116.608 172.958 118.517 173.392 120.455 173.424C122.392 173.457 124.315 173.088 126.103 172.341C127.891 171.593 129.504 170.483 130.842 169.081C132.179 167.679 133.212 166.015 133.874 164.194L169.491 65.9514C170.645 62.7405 170.59 59.2196 169.336 56.0464C168.083 52.8733 165.717 50.2651 162.681 48.7093C143.553 38.7911 126.56 25.2125 112.666 8.74452C110.479 6.12053 107.41 4.38404 104.034 3.86034C100.659 3.33664 97.2077 4.06165 94.3281 5.89958V5.89958Z" fill="#D8DBE8"/>
<path d="M94.3281 2.20524L6.44269 58.6608C4.81235 59.7077 3.41678 61.0812 2.34408 62.6946C1.27139 64.3081 0.544875 66.1264 0.210411 68.0348C-0.124052 69.9432 -0.0592056 71.9003 0.400872 73.7823C0.86095 75.6644 1.70626 77.4307 2.88342 78.9696C32.3336 117.497 70.7754 148.222 114.846 168.456C116.608 169.264 118.517 169.697 120.455 169.73C122.392 169.763 124.315 169.394 126.103 168.646C127.891 167.899 129.504 166.789 130.842 165.387C132.179 163.985 133.212 162.321 133.874 160.5L169.491 62.257C170.645 59.0462 170.59 55.5252 169.336 52.3521C168.083 49.1789 165.717 46.5707 162.681 45.0149C143.553 35.0967 126.56 21.5181 112.666 5.05018C110.479 2.42619 107.41 0.689705 104.034 0.166002C100.659 -0.357701 97.2077 0.367314 94.3281 2.20524V2.20524Z" fill="white"/>
<path d="M94.3281 2.20524L6.44269 58.6608C4.81235 59.7077 3.41678 61.0812 2.34408 62.6946C1.27139 64.3081 0.544875 66.1264 0.210411 68.0348C-0.124052 69.9432 -0.0592056 71.9003 0.400872 73.7823C0.86095 75.6644 1.70626 77.4307 2.88342 78.9696C32.3336 117.497 70.7754 148.222 114.846 168.456C116.608 169.264 118.517 169.697 120.455 169.73C122.392 169.763 124.315 169.394 126.103 168.646C127.891 167.899 129.504 166.789 130.842 165.387C132.179 163.985 133.212 162.321 133.874 160.5L169.491 62.257C170.645 59.0462 170.59 55.5252 169.336 52.3521C168.083 49.1789 165.717 46.5707 162.681 45.0149C143.553 35.0967 126.56 21.5181 112.666 5.05018C110.479 2.42619 107.41 0.689705 104.034 0.166002C100.659 -0.357701 97.2077 0.367314 94.3281 2.20524V2.20524Z" fill="#23AAAC"/>
</g>
<defs>
<clipPath id="clip0_4306_13">
<rect width="170.33" height="173.43" fill="white"/>
</clipPath>
</defs>
</svg>
