<svg width="171" height="171" viewBox="0 0 171 171" fill="none" xmlns="http://www.w3.org/2000/svg">
<path d="M94.9968 3.14836L7.11133 59.6039C5.48099 60.6508 4.08542 62.0243 3.01272 63.6377C1.94003 65.2512 1.21352 67.0695 0.879052 68.9779C0.544588 70.8863 0.609435 72.8434 1.06951 74.7254C1.52959 76.6075 2.3749 78.3738 3.55206 79.9127C33.0023 118.44 71.444 149.165 115.515 169.399C117.276 170.207 119.186 170.64 121.123 170.673C123.061 170.706 124.984 170.337 126.772 169.589C128.559 168.842 130.173 167.732 131.51 166.33C132.848 164.928 133.88 163.264 134.543 161.443L170.16 63.2001C171.314 59.9893 171.258 56.4684 170.005 53.2952C168.752 50.1221 166.386 47.5139 163.349 45.958C144.222 36.0398 127.229 22.4613 113.335 5.9933C111.148 3.36931 108.079 1.63282 104.703 1.10912C101.327 0.585414 97.8763 1.31043 94.9968 3.14836Z" fill="#D8DBE8"/>
</svg>
