<svg width="171" height="174" viewBox="0 0 171 174" fill="none" xmlns="http://www.w3.org/2000/svg">
<g clip-path="url(#clip0_4307_30)">
<path d="M1.05029 66.189L36.6676 164.432C37.3287 166.253 38.3599 167.916 39.6962 169.318C41.0326 170.72 42.6449 171.83 44.4317 172.578C46.2184 173.325 48.1407 173.694 50.0773 173.662C52.0138 173.629 53.9226 173.195 55.6832 172.388C99.7601 152.158 138.207 121.433 167.658 82.9016C168.835 81.3627 169.681 79.5964 170.141 77.7143C170.601 75.8323 170.666 73.8752 170.331 71.9668C169.997 70.0584 169.27 68.2401 168.198 66.6266C167.125 65.0132 165.729 63.6397 164.099 62.5928L76.2135 6.13726C73.3354 4.29794 69.8854 3.5709 66.5098 4.09233C63.1341 4.61375 60.0644 6.34786 57.8754 8.96989C43.9816 25.4378 26.9884 39.0164 7.86092 48.9346C4.82179 50.4907 2.45384 53.101 1.20026 56.2769C-0.0533277 59.4528 -0.106634 62.9767 1.05029 66.189Z" fill="#D8DBE8"/>
<path d="M0.830568 62.2613L36.4478 160.504C37.1089 162.325 38.1402 163.989 39.4765 165.391C40.8128 166.793 42.4252 167.902 44.212 168.65C45.9987 169.397 47.921 169.767 49.8575 169.734C51.7941 169.701 53.7029 169.268 55.4634 168.46C99.5404 148.23 137.987 117.505 167.439 78.9738C168.616 77.4349 169.461 75.6687 169.921 73.7866C170.381 71.9045 170.446 69.9475 170.112 68.0391C169.777 66.1307 169.051 64.3124 167.978 62.6989C166.905 61.0855 165.51 59.7119 163.879 58.6651L75.9938 2.20953C73.1157 0.370201 69.6657 -0.35683 66.2901 0.164593C62.9144 0.686015 59.8447 2.42013 57.6556 5.04216C43.7618 21.5101 26.7687 35.0887 7.6412 45.0069C4.60206 46.563 2.23412 49.1733 0.980531 52.3492C-0.273054 55.5251 -0.32636 59.0489 0.830568 62.2613Z" fill="white"/>
<path d="M0.830568 62.2613L36.4478 160.504C37.1089 162.325 38.1402 163.989 39.4765 165.391C40.8128 166.793 42.4252 167.902 44.212 168.65C45.9987 169.397 47.921 169.767 49.8575 169.734C51.7941 169.701 53.7029 169.268 55.4634 168.46C99.5404 148.23 137.987 117.505 167.439 78.9738C168.616 77.4349 169.461 75.6687 169.921 73.7866C170.381 71.9045 170.446 69.9475 170.112 68.0391C169.777 66.1307 169.051 64.3124 167.978 62.6989C166.905 61.0855 165.51 59.7119 163.879 58.6651L75.9938 2.20953C73.1157 0.370201 69.6657 -0.35683 66.2901 0.164593C62.9144 0.686015 59.8447 2.42013 57.6556 5.04216C43.7618 21.5101 26.7687 35.0887 7.6412 45.0069C4.60206 46.563 2.23412 49.1733 0.980531 52.3492C-0.273054 55.5251 -0.32636 59.0489 0.830568 62.2613Z" fill="#FB5352"/>
</g>
<defs>
<clipPath id="clip0_4307_30">
<rect width="170.54" height="174" fill="white"/>
</clipPath>
</defs>
</svg>
