<svg width="149" height="139" viewBox="0 0 149 139" fill="none" xmlns="http://www.w3.org/2000/svg">
<path d="M15.9578 12.5559C13.7846 29.5017 8.95071 45.9984 1.63458 61.4373C0.152661 64.5241 -0.153345 68.0452 0.773851 71.3414C1.70105 74.6376 3.79786 77.4829 6.67173 79.3444L94.5572 135.812C96.1817 136.858 98.0051 137.556 99.9125 137.863C101.82 138.17 103.77 138.078 105.641 137.595C107.511 137.111 109.261 136.246 110.781 135.053C112.301 133.861 113.558 132.366 114.472 130.664C133.564 94.9738 145.077 55.7244 148.291 15.3762C148.444 13.4509 148.197 11.5147 147.566 9.68927C146.935 7.86383 145.934 6.1885 144.625 4.76841C143.315 3.34831 141.727 2.21412 139.959 1.43699C138.191 0.659864 136.281 0.256575 134.35 0.252441H29.8623C26.445 0.261816 23.1481 1.5162 20.5888 3.78082C18.0295 6.04544 16.3831 9.16509 15.9578 12.5559Z" fill="#D8DBE8"/>
</svg>
