<svg width="171" height="171" viewBox="0 0 171 171" fill="none" xmlns="http://www.w3.org/2000/svg">
<path d="M0.939271 63.1999L36.5565 161.443C37.2176 163.263 38.2489 164.927 39.5852 166.329C40.9215 167.731 42.5339 168.841 44.3207 169.588C46.1074 170.336 48.0297 170.705 49.9662 170.673C51.9028 170.64 53.8116 170.206 55.5721 169.399C99.6491 149.169 138.096 118.444 167.547 79.9124C168.724 78.3735 169.57 76.6073 170.03 74.7252C170.49 72.8431 170.555 70.8861 170.22 68.9777C169.886 67.0693 169.159 65.2509 168.087 63.6375C167.014 62.0241 165.618 60.6505 163.988 59.6037L76.1025 3.14812C73.2244 1.3088 69.7744 0.581769 66.3988 1.10319C63.0231 1.62461 59.9534 3.35873 57.7643 5.98076C43.8705 22.4487 26.8774 36.0273 7.7499 45.9455C4.71077 47.5016 2.34282 50.1119 1.08923 53.2878C-0.164351 56.4637 -0.217657 59.9875 0.939271 63.1999Z" fill="#D8DBE8"/>
</svg>
