<svg width="149" height="139" viewBox="0 0 149 139" fill="none" xmlns="http://www.w3.org/2000/svg">
<path d="M119.237 0.252443H14.7496C12.815 0.251484 10.9013 0.651022 9.12871 1.4259C7.35617 2.20077 5.76324 3.33421 4.45018 4.75486C3.13712 6.17551 2.13238 7.85259 1.49921 9.68055C0.866037 11.5085 0.61814 13.4478 0.771134 15.3762C3.98493 55.7244 15.4985 94.9738 34.5903 130.664C35.5046 132.366 36.7611 133.861 38.281 135.053C39.8008 136.246 41.5509 137.111 43.4214 137.595C45.2919 138.078 47.2422 138.17 49.1496 137.863C51.0571 137.556 52.8804 136.858 54.5049 135.812L142.39 79.3444C145.264 77.4829 147.361 74.6376 148.288 71.3414C149.215 68.0452 148.909 64.5241 147.428 61.4373C140.111 45.9984 135.278 29.5017 133.104 12.5559C132.68 9.17138 131.039 6.05677 128.487 3.79298C125.936 1.52919 122.648 0.270773 119.237 0.252443Z" fill="#D8DBE8"/>
</svg>
