<svg width="87" height="115" viewBox="0 0 87 115" fill="none" xmlns="http://www.w3.org/2000/svg">
<g clip-path="url(#clip0_4305_577)">
<path d="M38.9338 77.7803C38.9338 77.7803 39.0235 97.1914 38.3285 104.003C38.3285 104.003 40.8977 107.73 46.7623 104.786C46.7623 104.786 45.2667 87.2557 45.7423 78.4753C45.7335 78.6379 43.1907 74.4232 38.9338 77.7803Z" fill="url(#paint0_linear_4305_577)"/>
<path d="M82.8956 78.6936C82.9044 78.531 82.9132 78.3684 82.7507 78.3596C82.0918 78.487 81.4329 78.6144 80.9365 78.7506C78.011 78.5922 75.1207 77.7833 72.6172 75.8538C71.9935 75.3308 71.2073 74.799 70.4298 74.1046C73.1664 74.7421 75.9382 74.7291 78.0774 74.3557C78.24 74.3645 78.2576 74.0393 78.1039 73.8679C76.8124 73.6349 75.5298 73.2393 74.2384 73.0063C76.3689 72.7955 78.2095 71.9167 79.2992 69.8557C79.4705 69.7019 79.1543 69.5217 79.1543 69.5217C77.6651 69.9303 76.1936 70.0137 74.5683 69.9256C70.8918 68.585 66.6709 65.2579 64.5276 62.6956C64.229 62.1902 63.759 61.8386 63.4604 61.3332C66.4123 61.0039 69.8958 59.8879 71.5083 57.2029C71.8598 56.7327 71.5787 55.9021 70.9198 56.0295C70.586 56.1745 70.2521 56.3195 69.9182 56.4645C69.5932 56.4469 69.2593 56.5919 69.0968 56.5831C66.6589 56.451 64.0937 55.6598 61.8799 54.3984C62.8639 54.2886 63.8567 54.0162 64.7046 53.4098C65.2009 53.2736 65.5348 53.1286 65.8863 52.6584C66.0576 52.5046 65.9039 52.3332 65.7414 52.3244C65.7414 52.3244 65.7414 52.3244 65.9127 52.1706C66.084 52.0168 65.9303 51.8454 65.7678 51.8366C64.6213 51.9376 63.6461 51.8848 62.6798 51.6694C61.5685 51.1199 60.6374 50.2541 59.7062 49.3883C62.1353 49.6829 64.7446 49.6612 66.594 48.6198C66.7566 48.6286 66.7566 48.6286 66.9191 48.6374C67.2441 48.655 67.4243 48.3386 67.2794 48.0046C67.4507 47.8508 67.622 47.697 67.7846 47.7058C67.9559 47.552 67.811 47.218 67.6485 47.2092C67.1609 47.1828 66.5108 47.1476 66.0232 47.1212C62.988 45.9783 60.1682 43.8687 57.5109 41.7678C55.4773 40.19 54.1114 38.3221 52.9169 36.3005C56.141 36.9644 59.5805 36.6614 61.9176 35.6465C62.0801 35.6553 62.0889 35.4927 61.9352 35.3213C61.9352 35.3213 61.9352 35.3213 61.7727 35.3125C59.3524 34.8552 57.0377 32.4468 55.1667 30.8777C54.543 30.3547 54.0818 29.8405 53.6207 29.3263C57.073 31.7964 61.2194 33.4886 63.6357 31.0103C63.807 30.8565 63.8159 30.6939 63.6533 30.6851C51.3981 28.2275 45.0876 15.3287 41.0612 2.39055C40.9339 1.73135 40.1213 1.68733 39.9147 2.49153C39.8971 2.81673 39.8795 3.14193 39.8619 3.46713C39.5456 3.28692 39.0404 3.58572 38.8515 4.06472C37.5328 10.3533 36.139 21.041 29.5234 22.8026C29.3608 22.7938 29.5058 23.1278 29.5058 23.1278C30.4985 22.8555 31.6626 22.4293 32.6907 21.5065C30.059 24.9517 26.2544 28.9856 22.3273 29.2621C22.0023 29.2445 21.9671 29.8949 22.2921 29.9125C25.0639 29.8996 27.7084 29.2274 30.063 27.8873C28.1255 30.5547 25.8805 32.8792 23.2008 34.2018C22.6956 34.5006 22.9855 35.1686 23.4818 35.0324C26.3065 34.0438 28.995 32.5587 31.2399 30.2341C31.051 30.7131 30.8708 31.0295 30.5194 31.4997C30.3392 31.8161 29.9965 32.1237 29.8076 32.6027C27.3297 36.2193 23.7845 38.4734 19.8486 38.9125C19.361 38.8861 19.4795 39.7079 19.8046 39.7255C21.2585 39.9674 22.5675 39.8752 23.8942 39.4578C21.6756 41.2946 18.9959 42.6171 16.4131 42.1511C16.088 42.1335 16.0616 42.6213 16.3779 42.8015C20.0544 44.1422 23.2128 43.0086 26.4242 40.8995C22.5667 45.909 17.6421 49.5561 11.4572 49.3842C11.1322 49.3666 11.1146 49.6918 11.0969 50.017C10.6094 49.9906 10.4116 50.6322 10.8816 50.9838C14.5052 53.3001 18.3971 53.674 22.3417 53.0722C21.9991 53.3798 21.6476 53.85 21.1424 54.1488C17.5532 57.216 13.683 59.4525 9.25069 60.0279C9.08816 60.0191 8.91683 60.1728 8.89922 60.498C8.41163 60.4716 8.08658 60.454 7.59019 60.5902C6.94008 60.555 6.87843 61.6932 7.51974 61.891C12.0089 63.2757 16.7398 63.2058 21.3698 61.9889C21.0183 62.4591 20.658 63.0919 20.3066 63.5621L20.1352 63.7159C17.574 65.8602 14.6045 66.5148 11.8896 68.4877C11.7182 68.6415 11.8543 69.1381 12.0257 68.9843C14.1914 68.1232 16.3483 67.4246 18.3602 66.392C17.4771 67.6488 16.6029 68.743 15.5572 69.991C12.6005 73.4186 8.25551 78.4017 4.1483 78.9946C3.82324 78.977 3.6431 79.2934 3.62549 79.6186C2.98418 79.4208 2.51421 79.0692 1.88172 78.7088C1.56547 78.5286 1.21399 78.9988 1.35891 79.3328C3.44935 82.8707 9.0105 82.5196 12.2875 82.2078C13.9216 82.1332 16.0696 81.5973 18.0728 80.7273C16.5308 82.1115 14.6902 82.9903 13.012 83.8778C12.6782 84.0228 12.8055 84.682 13.1393 84.537C13.8071 84.247 14.4748 83.9571 15.1425 83.6671C12.2386 86.119 8.73749 87.5602 5.28919 88.0257L5.12667 88.0169C4.80161 87.9993 4.48536 87.8191 4.16031 87.8015C3.84406 87.6213 3.6463 88.2629 3.96255 88.4431C10.8584 93.5458 20.562 91.9514 27.3889 86.2873C26.5058 87.5441 25.469 88.6295 24.1336 89.2094C23.971 89.2006 23.9534 89.5258 23.9446 89.6884C22.7805 90.1146 21.6164 90.5408 20.2809 91.1208C19.7757 91.4196 19.8854 92.404 20.3818 92.2678C24.8229 91.5299 29.2552 90.9546 33.3055 88.4016C34.8299 87.3426 36.2006 86.1122 37.5801 84.7193C36.6794 86.3013 35.7787 87.8832 34.7154 89.4564C34.7066 89.619 34.6978 89.7816 34.8692 89.6278C36.9692 86.9693 39.2318 84.3195 40.5544 80.9665C40.5016 81.9421 40.4487 82.9177 40.3959 83.8933C40.0925 86.4861 40.2502 89.5931 39.4592 92.1595C39.0813 93.1175 38.7122 93.9129 38.1718 94.8621C38.163 95.0247 38.1541 95.1873 38.3255 95.0335C39.6697 94.291 40.5352 93.3594 41.4271 91.94C43.022 89.5802 45.078 87.7346 46.5103 85.366C46.8618 84.8958 47.0507 84.4168 47.411 83.784C47.178 85.076 46.7825 86.3592 46.2245 87.6336C46.2157 87.7962 46.3694 87.9676 46.3782 87.805C47.459 85.9066 48.0523 83.9819 48.5007 81.7231C50.8897 85.7663 53.8368 88.5352 57.0826 91.8094C57.2363 91.9808 57.4164 91.6644 57.2539 91.6556C56.9465 91.3128 56.8016 90.9788 56.4941 90.636C56.9553 91.1502 57.4164 91.6645 58.0401 92.1875C58.1939 92.3589 58.3652 92.2051 58.2115 92.0337C57.0434 89.5242 56.2091 86.8698 55.366 84.378C62.3851 87.2043 71.5347 89.8199 77.3689 84.4282C77.7115 84.1206 77.5843 83.4614 77.0879 83.5976C76.4289 83.7249 75.77 83.8523 75.1199 83.8171C73.3233 83.8829 71.7156 83.4697 70.1256 82.7312C74.0263 82.9425 77.9798 82.1782 80.7475 79.2296C81.0814 79.0846 81.2615 78.7682 81.5954 78.6232C82.878 79.0188 82.8868 78.8562 82.8956 78.6936C82.8956 78.6936 82.7331 78.6848 82.8956 78.6936Z" fill="url(#paint1_linear_4305_577)"/>
<path opacity="0.5" d="M16.6855 43.1443C20.362 44.485 23.5205 43.3514 26.7318 41.2423C25.1633 43.1143 23.5949 44.9862 21.7279 46.3528C20.8712 47.1218 19.8696 47.5568 18.8592 48.1544C19.3556 48.0182 20.0145 47.8908 20.5021 47.9172C22.1538 47.5174 23.643 47.1089 25.1585 46.2125C26.6653 45.4787 29.7317 43.0355 30.9399 41.7964C30.1136 45.0132 26.9327 49.5701 27.2754 49.2625C30.6757 46.6744 31.7389 45.1012 33.5403 41.9372C33.6364 46.1824 33.2361 50.5638 33.6572 54.8267C33.6308 55.3145 33.4242 56.1187 33.7669 55.8111C34.9838 54.4093 39.3296 43.3923 40.0502 42.1267C41.0206 45.2778 43.9717 50.9822 43.9893 50.657C44.609 48.2444 44.2623 45.6164 44.0782 42.9972C46.0942 44.9002 51.3431 47.3045 51.0444 46.7991C47.5 43.0195 44.0349 37.7764 43.3768 31.8699C43.4032 31.3821 42.2648 37.3543 41.9525 40.1097C40.1519 37.2399 39.5907 29.5449 39.4017 30.0239C37.5739 33.6756 36.7036 37.7054 35.2008 41.3748C34.7092 38.4128 35.7292 31.6188 35.3954 31.7638C34.3585 32.8492 33.6468 33.9522 32.7725 35.0464C32.0696 35.9867 31.2129 36.7557 30.1937 37.5159C31.2745 35.6175 32.9927 30.9813 32.8125 31.2977C31.3802 33.6663 29.008 35.3317 26.5084 36.3378C25.9944 36.7992 25.3267 37.0892 24.8127 37.5506C23.3059 38.2844 21.8079 38.8556 20.165 39.0927C19.6774 39.0663 19.7959 39.8881 20.121 39.9058C21.5749 40.1476 22.884 40.0554 24.2106 39.638C21.9921 41.4748 19.3124 42.7973 16.7295 42.3313C16.5582 42.4851 16.3604 43.1267 16.6855 43.1443Z" fill="url(#paint2_linear_4305_577)"/>
<path opacity="0.6" d="M22.5994 30.2553C22.7619 30.2641 22.7619 30.2641 22.9244 30.2729C23.087 30.2817 23.2583 30.1279 23.2583 30.1279L23.4208 30.1367C27.3567 29.6976 30.7746 26.7843 34.1748 24.1961C33.6344 25.1453 32.7689 26.0769 32.0748 26.8547C31.7321 27.1623 32.022 27.8303 32.5095 27.8567C34.9827 27.3383 37.3725 25.3478 39.1211 23.1594C38.8969 24.2888 38.6728 25.4182 38.6111 26.5564C38.5847 27.0442 39.226 27.242 39.4061 26.9256C40.4694 25.3524 41.0626 23.4276 41.8096 21.6742C42.5254 23.5069 43.0698 25.4933 44.282 27.1897C44.5894 27.5325 44.9233 27.3875 44.9497 26.8997C45.0289 25.4363 44.7832 23.9553 44.6999 22.4831C46.1186 23.3753 47.5197 24.5927 48.5869 25.9552C48.8944 26.298 49.4172 25.674 49.1097 25.3312C46.8215 22.4349 45.7327 18.4621 43.9585 15.1044C43.8136 14.7704 43.3172 14.9066 43.2996 15.2318C43.2467 16.2074 43.0314 17.1742 42.8248 17.9784C42.0914 16.471 41.8456 14.99 41.78 13.1926C41.7976 12.8674 41.3276 12.5158 41.1475 12.8322C40.2644 14.089 39.7064 15.3634 38.8233 16.6202C39.1443 13.7021 39.7816 10.9644 40.0939 8.20894C40.1996 6.25774 40.314 4.14393 40.2572 2.18393C40.0859 2.33772 40.0859 2.33772 40.0771 2.50032C40.0594 2.82552 40.0418 3.15072 40.0242 3.47592C39.8617 3.46712 39.6992 3.45831 39.5366 3.44951C39.3653 3.60331 39.194 3.75711 39.0138 4.07351C37.6952 10.3621 36.3013 21.0497 29.6857 22.8114C29.5232 22.8026 29.6681 23.1366 29.6681 23.1366C30.6609 22.8642 31.825 22.4381 32.853 21.5153C31.4471 23.3961 29.7073 25.4218 27.8315 26.951C26.1269 28.3264 24.4488 29.214 22.6522 29.2797C22.4897 29.2709 22.4897 29.2709 22.4809 29.4335C22.2831 30.0751 22.2743 30.2377 22.5994 30.2553Z" fill="url(#paint3_linear_4305_577)"/>
<path opacity="0.4" d="M63.7405 68.1976C62.1328 67.7844 60.6877 67.38 59.2426 66.9755C57.6966 65.4241 55.9616 64.3517 54.4156 62.8002C52.8696 61.2488 51.8552 58.9108 50.3092 57.3593C50.0017 57.0165 49.4965 57.3153 49.6326 57.8119C49.7423 58.7963 49.7423 58.7963 49.852 59.7807C49.9705 60.6025 50.6334 63.4107 49.1226 61.2089C48.5254 60.1981 48.0994 59.0335 47.3308 58.1765C47.1771 58.0051 46.8521 57.9875 46.8344 58.3127C46.1051 59.7409 46.5046 61.3933 46.7504 62.8743C45.8633 61.1955 45.3277 59.0464 44.278 57.3588C44.1331 57.0248 43.7993 57.1698 43.6279 57.3236C42.7008 59.3934 42.9026 61.6874 42.9418 63.9726C42.2436 61.8148 41.8705 59.6746 41.3261 57.6882C41.1812 57.3542 40.8562 57.3366 40.676 57.653C39.5511 60.3643 39.0587 63.4361 38.2501 66.3277C38.0924 63.2207 38.2597 60.1313 38.427 57.0419C38.4447 56.7167 37.9659 56.5277 37.7857 56.8441C35.1101 61.1023 33.0668 65.7209 31.3311 70.6822C31.5513 66.6172 32.0965 62.5698 32.7954 58.6938C32.8219 58.206 32.5056 58.0258 32.1629 58.3334C30.2342 60.8382 28.6306 63.3606 26.4032 65.3599C24.6899 66.8979 22.9765 68.4359 21.1007 69.9651C22.1551 68.5545 23.2095 67.1439 23.9565 65.3905C25.2439 62.6879 27.0101 60.1743 27.9813 57.2915C27.9901 57.1289 27.854 56.6323 27.6738 56.9487C25.7803 58.8031 23.8692 60.9827 21.822 62.6656C21.6507 62.8194 21.3168 62.9644 21.1455 63.1182C20.9654 63.4346 20.794 63.5884 20.6139 63.9048L20.4426 64.0586C20.2712 64.2124 20.2712 64.2124 20.0999 64.3662C17.71 66.3568 14.7405 67.0113 12.1969 68.8305C12.0256 68.9843 12.1617 69.4809 12.333 69.3271C14.4987 68.4659 16.6556 67.7674 18.6676 66.7348C17.7845 67.9916 16.9102 69.0858 15.8646 70.3338C13.4307 73.1373 10.1225 77.0351 6.61251 78.6388C5.94479 78.9288 5.27707 79.2188 4.45562 79.3374C4.45562 79.3374 4.45562 79.3374 4.29309 79.3286C8.94474 80.7221 14.2513 79.0526 18.2929 76.6622C20.1423 75.6209 21.8469 74.2455 23.3977 72.6987C23.9205 72.0747 24.6058 71.4595 25.1286 70.8355C25.4713 70.5279 25.8228 70.0577 26.1742 69.5875L26.4465 70.5808C26.2487 71.2224 26.0509 71.864 25.8532 72.5056C25.0886 74.5842 24.1615 76.6539 23.0806 78.5523C21.6571 80.7583 19.9262 82.6215 18.5114 84.6649C18.16 85.1351 18.6211 85.6493 18.9726 85.1791C22.083 81.9229 26.063 80.6708 29.6081 78.4167C32.3054 76.7689 34.7394 73.9653 36.2157 70.7837C35.7321 73.6929 34.6073 76.4043 34.1237 79.3135C34.0973 79.8013 34.5672 80.1529 34.7562 79.6739C36.1621 77.7932 36.9355 75.552 37.8714 73.3196C38.7985 71.2498 39.5984 68.5208 40.8417 66.6312C41.8209 69.6196 42.1059 73.3858 44.1043 75.6141C44.258 75.7855 44.7456 75.8119 44.772 75.3241C45.0402 73.3817 44.0875 69.9055 45.0058 67.9983C45.7128 69.9935 46.8897 72.3403 48.6511 72.925C48.8136 72.9338 49.1475 72.7888 49.1563 72.6262C49.2619 70.675 48.5286 69.1675 48.1379 67.3525C48.9065 68.2095 49.6751 69.0666 50.4525 69.761C50.7687 69.9412 50.9489 69.6248 50.804 69.2908C50.6943 68.3064 50.422 67.3132 49.9873 66.3112C49.2715 64.4785 49.5702 64.9839 50.655 66.0212C52.0473 67.4012 53.2947 68.4472 55.0737 68.7067C55.2362 68.7155 55.4076 68.5617 55.2538 68.3903C54.5028 67.208 53.7519 66.0258 53.1722 64.6898C56.1369 67.1335 59.6333 68.7905 63.2441 68.3338C63.8766 68.6942 63.8942 68.369 63.7405 68.1976Z" fill="url(#paint4_linear_4305_577)"/>
<path opacity="0.4" d="M30.7058 49.1222C30.3632 49.4298 30.0205 49.7373 29.6778 50.0449C28.8212 50.8139 27.8108 51.4115 26.9629 52.0179C27.9821 51.2577 29.1726 50.3437 30.2095 49.2583C30.2095 49.2583 30.2183 49.0957 30.2095 49.2583C28.5049 50.6337 26.8268 51.5213 25.1487 52.4089C23.4618 53.459 21.911 55.0058 20.3689 56.39C18.6644 57.7654 16.6612 58.6353 14.6669 59.3427C13.6741 59.6151 12.6813 59.8875 11.6885 60.1599C10.7046 60.2697 9.71179 60.542 8.73663 60.4892C8.5741 60.4804 8.56529 60.643 8.72782 60.6518C9.05287 60.6694 9.36912 60.8496 9.69417 60.8672C9.68537 61.0298 9.67656 61.1924 9.83909 61.2012C10.8143 61.2541 11.7982 61.1443 12.7822 61.0345C19.6436 60.7538 26.7692 55.5951 30.8596 49.2936C31.0309 49.1398 30.8772 48.9684 30.7058 49.1222Z" fill="url(#paint5_linear_4305_577)"/>
<path opacity="0.4" d="M82.8957 78.6936C82.9045 78.531 82.9133 78.3684 82.7507 78.3596C82.0918 78.487 81.4329 78.6144 80.9365 78.7506C78.8237 78.6361 76.7284 78.1965 74.8221 77.2779C74.0271 76.9086 73.2409 76.3768 72.6172 75.8538C71.9935 75.3308 71.2073 74.799 70.4299 74.1046C73.1664 74.742 75.9382 74.7291 78.0775 74.3557C78.24 74.3645 78.2576 74.0393 78.1039 73.8679C76.8125 73.6349 75.5299 73.2393 74.2385 73.0062C75.8814 72.7691 77.2168 72.1891 78.4161 71.1125C78.7588 70.8049 79.1103 70.3347 79.4618 69.8645C79.6331 69.7107 79.3168 69.5305 79.3168 69.5305C77.8277 69.9391 76.3561 70.0225 74.7309 69.9344C74.0895 69.7366 73.2945 69.3674 72.4995 68.9982C69.4907 67.3675 66.3635 64.9151 64.6814 62.867C64.3827 62.3616 63.9128 62.01 63.6141 61.5046C66.4035 61.1664 69.7157 60.2043 71.4819 57.6907C71.4907 57.5281 71.6532 57.5369 71.662 57.3743C72.0135 56.9041 71.7325 56.0735 71.0736 56.2009C70.7397 56.3459 70.4059 56.4909 70.072 56.6359C69.7469 56.6183 69.4131 56.7633 69.2505 56.7545C66.8126 56.6224 64.2474 55.8312 62.0337 54.5697C62.1962 54.5785 62.5213 54.5961 62.6926 54.4423C63.3515 54.315 63.8479 54.1788 64.5156 53.8888C64.687 53.735 64.8495 53.7438 65.0208 53.59C65.5172 53.4538 65.8511 53.3088 66.2026 52.8386C66.3739 52.6848 66.2202 52.5134 66.0576 52.5046C66.0576 52.5046 66.0576 52.5046 66.229 52.3508C66.4003 52.197 66.2466 52.0256 66.0841 52.0168C64.9376 52.1178 63.9624 52.065 62.996 51.8495C61.8848 51.3001 60.9537 50.4343 60.0225 49.5685C60.1851 49.5773 60.185 49.5773 60.3476 49.5861C62.7767 49.8807 65.0609 49.8414 66.9103 48.8C67.0728 48.8088 67.0728 48.8088 67.2354 48.8176C67.3979 48.8264 67.5692 48.6726 67.5692 48.6726C67.578 48.51 67.5869 48.3474 67.5869 48.3474C67.7582 48.1936 67.9295 48.0398 68.092 48.0486C68.2634 47.8948 68.1185 47.5608 67.9559 47.552C67.4684 47.5256 66.8182 47.4904 66.3307 47.464C64.5693 46.8793 62.9968 45.8157 61.5869 44.7609C60.3308 43.8775 59.0746 42.994 57.9809 42.1194C55.9473 40.5416 54.5815 38.6737 53.3869 36.6521C56.1235 37.2896 59.2379 36.969 61.386 36.433C61.7198 36.288 62.0537 36.1431 62.3788 36.1607C62.5413 36.1695 62.5501 36.0069 62.3964 35.8355C62.3964 35.8355 62.3964 35.8355 62.2338 35.8267C59.8136 35.3694 57.4989 32.961 55.6279 31.3919C55.0042 30.8689 54.543 30.3547 54.0819 29.8405C57.5342 32.3106 61.6806 34.0028 64.0969 31.5245C64.2682 31.3707 64.277 31.2081 64.1145 31.1993C63.7895 31.1817 63.4732 31.0014 63.3107 30.9926C63.3107 30.9926 63.3107 30.9926 63.1482 30.9838C62.8231 30.9662 62.4981 30.9486 62.173 30.931C60.0778 30.4914 58.0089 29.564 56.1026 28.6453C52.1451 26.474 49.7473 22.5934 47.0155 18.8577C46.8618 18.6863 46.5279 18.8313 46.6729 19.1653C47.5247 21.4945 48.7193 23.5162 50.0851 25.384C50.8185 26.8914 51.5519 28.3988 52.4654 29.5898C52.3117 29.4184 51.9954 29.2382 51.8417 29.0668C50.5943 28.0208 49.3646 26.6496 47.937 25.92C47.6208 25.7397 47.4319 26.2188 47.5856 26.3902C48.0379 27.067 48.6528 27.7526 49.114 28.2668C51.2573 30.829 53.5719 33.2375 56.2644 34.6879C55.6143 34.6527 54.9642 34.6175 54.3229 34.4197C50.62 33.5668 47.4487 31.9274 44.8618 28.5257C44.7081 28.3543 44.3654 28.6619 44.5192 28.8333C45.279 29.8529 45.8674 31.0263 46.636 31.8834C49.6048 37.2626 53.4302 41.8729 57.6687 44.8748C54.1899 42.8925 51.0539 40.6027 48.1244 37.5086C47.817 37.1658 47.628 37.6448 47.7729 37.9788C48.6776 39.3324 49.5911 40.5234 50.5047 41.7145C53.2188 45.7753 56.583 49.8714 60.5405 52.0427C57.804 51.4052 54.1803 49.089 52.182 46.8607C52.0283 46.6893 51.6856 46.9969 51.8393 47.1683C52.4454 48.0165 53.0515 48.8648 53.8289 49.5592C54.5887 50.5788 55.1859 51.5896 56.2796 52.4642C57.5182 53.6728 59.0994 54.5739 60.5269 55.3035C55.3789 54.0462 50.2092 50.1785 46.5464 45.577C46.2389 45.2342 45.8874 45.7044 46.0324 46.0384C46.4671 47.0404 47.0644 48.0512 47.833 48.9083C48.5752 50.2531 49.1636 51.4265 49.7433 52.7625C49.7433 52.7625 49.5719 52.9163 49.7345 52.9251C50.178 53.7645 50.6304 54.4413 51.0739 55.2807C49.8441 53.9095 48.6144 52.5383 47.3846 51.1671C47.0948 50.4991 46.7962 49.9936 46.6689 49.3344C46.6777 49.1718 46.3526 49.1542 46.3438 49.3168C46.6905 51.9449 47.6785 54.7707 49.198 56.8099C49.5055 57.1527 49.857 56.6825 49.712 56.3485C49.4398 55.3553 48.9963 54.5159 48.7153 53.6853C49.9274 55.3817 51.1396 57.0782 52.6856 58.6296C53.3005 59.3152 54.0867 59.847 55.0354 60.3876C56.1115 61.5875 57.1875 62.7873 58.4261 63.9959C60.4333 66.0616 62.972 67.3406 65.5196 68.4571C67.9047 69.5647 70.4611 70.5186 73.0527 70.822C68.783 71.4061 64.0521 71.476 60.4461 68.8346C60.2923 68.6632 59.9497 68.9708 60.0946 69.3048C60.7007 70.153 61.3243 70.676 61.948 71.199C64.7238 74.1217 68.3474 76.4379 71.8614 77.7698C72.819 78.1478 73.939 78.5347 75.0591 78.9215C69.0632 78.2706 62.5445 78.2437 58.113 72.7851C57.9593 72.6137 57.7792 72.9301 57.7704 73.0927C58.2227 73.7696 58.6663 74.609 59.1186 75.2858C59.1186 75.2858 59.1186 75.2858 59.1098 75.4484C61.3275 79.6454 63.9584 82.2341 67.2922 83.8824C66.4796 83.8383 65.8295 83.8031 65.0168 83.7591C62.7415 83.6359 60.4925 83.0248 58.4325 81.9348C56.6887 81.025 55.6655 78.8495 54.6159 77.1619C54.6247 76.9993 54.4534 77.1531 54.4446 77.3157C54.4181 77.8035 54.5631 78.1375 54.5454 78.4627C54.5454 78.4627 54.5454 78.4627 54.5366 78.6253C55.226 80.9457 55.5638 83.7364 56.3981 86.3908C55.9369 85.8766 55.4758 85.3624 55.1859 84.6944C52.9066 81.6355 51.8089 77.8253 50.3862 73.9974C50.3862 73.9974 50.2325 73.826 50.2236 73.9886L50.2148 74.1512L50.0523 74.1424C50.0435 74.305 50.0435 74.305 50.0347 74.4676C50.0083 74.9554 49.9907 75.2806 49.9642 75.7684C49.7048 77.5482 48.9667 79.139 48.2285 80.7298C47.4815 82.4832 46.7257 84.3992 45.8162 86.1438C44.8979 88.051 43.6633 89.778 42.2662 91.4962C42.6881 89.7252 43.1101 87.9542 43.2246 85.8403C43.2822 81.7665 43.564 76.5633 41.8075 72.8805C41.6537 72.7091 41.4824 72.8629 41.6361 73.0343C41.6273 73.1969 41.6097 73.5221 41.7634 73.6935C41.6009 73.6847 41.6009 73.6847 41.5921 73.8473C41.785 76.3039 40.1638 79.1515 39.0741 81.2125C37.9668 83.5986 36.0646 85.6156 34.1975 86.9822C32.1591 88.5026 29.8133 89.6801 27.485 90.5325C30.7316 87.7729 33.0734 83.6598 34.1503 78.8258C34.1591 78.6632 34.0053 78.4918 33.834 78.6455C33.4737 79.2783 33.1046 80.0737 32.7443 80.7065C32.5906 80.5351 32.4369 80.3637 32.103 80.5087C27.6836 83.8571 23.4443 86.889 18.3002 88.5673C15.4844 89.3933 12.5501 89.3974 9.65105 88.7512C9.00975 88.5534 8.52216 88.5269 7.88086 88.3291C7.547 88.4741 7.22195 88.4565 6.88809 88.6015L6.72556 88.5927C6.40051 88.5751 6.08425 88.3949 5.7592 88.3773C5.44295 88.1971 5.2452 88.8387 5.56145 89.0189C5.8777 89.1991 6.19394 89.3793 6.50138 89.7221C13.1162 93.9942 21.8446 92.347 28.3113 87.3157L28.1399 87.4695C27.4458 88.2473 26.7605 88.8625 25.9126 89.4689C25.7501 89.4601 25.7413 89.6227 25.7413 89.6227C25.7413 89.6227 25.7413 89.6227 25.5699 89.7765C25.0647 90.0752 24.7221 90.3828 24.2169 90.6816C23.3866 90.9628 22.7189 91.2528 21.8798 91.6966C21.7173 91.6878 21.7085 91.8504 21.5372 92.0042C21.3482 92.4832 21.4843 92.9798 21.9807 92.8436C25.7629 92.2331 29.5362 91.7851 33.055 90.0188C33.7227 89.7288 34.2279 89.43 34.9044 88.9774C36.4288 87.9184 37.7995 86.6881 39.179 85.2951C38.2783 86.8771 37.3776 88.4591 36.3143 90.0322C36.3055 90.1948 36.2967 90.3574 36.4681 90.2036C38.3968 87.6989 40.6594 85.0491 41.9644 82.0213C41.9027 83.1595 41.8411 84.2977 41.942 85.4447C41.8891 86.4203 41.8275 87.5585 41.7658 88.6967C41.6866 90.1601 41.4448 91.6147 41.0493 92.8979C40.6714 93.8559 40.3023 94.6513 39.7619 95.6005C39.753 95.7631 39.7442 95.9257 39.9156 95.7719C41.2598 95.0293 42.1253 94.0978 43.0172 92.6784C44.2518 90.9514 45.6313 89.5584 46.857 87.994C47.3798 87.37 47.7401 86.7372 48.2629 86.1132C48.6144 85.643 48.8033 85.164 49.1636 84.5312C48.9306 85.8232 48.5351 87.1064 47.9771 88.3808C47.9683 88.5434 48.122 88.7148 48.1308 88.5522C49.2117 86.6539 49.8049 84.7291 50.2533 82.4702C52.6423 86.5135 55.5895 89.2824 58.8352 92.5566C58.9889 92.7281 59.1691 92.4117 59.0065 92.4029C58.8616 92.0688 58.5542 91.726 58.4005 91.5546C58.5542 91.726 58.8616 92.0689 59.0153 92.2403C59.3228 92.5831 59.4765 92.7545 59.7839 93.0973L59.9465 93.1061C59.9465 93.1061 60.1178 92.9523 59.9641 92.7809C58.9497 90.4428 58.0978 88.1136 57.4085 85.7932C57.4173 85.6306 57.2724 85.2966 57.1186 85.1252C64.1377 87.9515 73.2873 90.5671 79.1215 85.1754C79.4642 84.8678 79.3369 84.2086 78.8405 84.3448C78.3441 84.481 77.6852 84.6083 77.0351 84.5731C76.8813 84.4017 76.8813 84.4017 76.7188 84.3929C75.9062 84.3489 74.931 84.2961 74.1184 84.2521C73.3145 84.0455 72.6732 83.8477 71.8782 83.4784C75.6163 83.6809 79.236 83.0616 81.9861 80.4382C82.1575 80.2844 82.3288 80.1306 82.5001 79.9768C82.834 79.8318 83.0141 79.5154 83.348 79.3704C82.878 79.0188 82.8868 78.8562 82.8957 78.6936C82.8957 78.6936 82.7331 78.6848 82.8957 78.6936Z" fill="url(#paint6_linear_4305_577)"/>
<path opacity="0.5" d="M28.8043 45.1054C28.1278 45.5579 27.605 46.1819 26.9284 46.6345C24.565 48.1373 22.2455 48.8271 19.6011 49.4992C15.8013 50.4349 12.2345 50.0787 8.46996 50.364C8.30743 50.3552 8.29862 50.5178 8.46115 50.5266C9.40109 51.2298 10.5212 51.6167 11.65 51.8409C17.4874 55.4186 26.5673 53.3011 28.8043 45.1054C28.8043 45.1054 28.9668 45.1142 28.8043 45.1054Z" fill="url(#paint7_linear_4305_577)"/>
<path d="M43.817 115C62.0424 115 76.817 112.985 76.817 110.5C76.817 108.015 62.0424 106 43.817 106C25.5916 106 10.817 108.015 10.817 110.5C10.817 112.985 25.5916 115 43.817 115Z" fill="white" fill-opacity="0.03"/>
</g>
<defs>
<linearGradient id="paint0_linear_4305_577" x1="38.1025" y1="91.3586" x2="46.5052" y2="91.1954" gradientUnits="userSpaceOnUse">
<stop offset="0.1327" stop-color="#6E5D00"/>
<stop offset="0.4712" stop-color="#4B3200"/>
<stop offset="0.6194" stop-color="#383007"/>
<stop offset="0.9337" stop-color="#003138"/>
</linearGradient>
<linearGradient id="paint1_linear_4305_577" x1="42.7173" y1="95.5295" x2="40.9019" y2="2.39493" gradientUnits="userSpaceOnUse">
<stop offset="0.0138911" stop-color="#057046"/>
<stop offset="1" stop-color="#169300"/>
</linearGradient>
<linearGradient id="paint2_linear_4305_577" x1="23.4117" y1="48.4441" x2="40.9127" y2="40.1422" gradientUnits="userSpaceOnUse">
<stop stop-color="#FFE23A"/>
<stop offset="0.9861" stop-color="#004227"/>
</linearGradient>
<linearGradient id="paint3_linear_4305_577" x1="25.1653" y1="28.5216" x2="42.6405" y2="15.7291" gradientUnits="userSpaceOnUse">
<stop stop-color="#FFE23A"/>
<stop offset="0.9861" stop-color="#004227"/>
</linearGradient>
<linearGradient id="paint4_linear_4305_577" x1="15.8663" y1="85.5568" x2="43.674" y2="64.4267" gradientUnits="userSpaceOnUse">
<stop stop-color="#FFE23A"/>
<stop offset="0.9861" stop-color="#004227"/>
</linearGradient>
<linearGradient id="paint5_linear_4305_577" x1="8.57011" y1="55.4211" x2="31.0702" y2="54.984" gradientUnits="userSpaceOnUse">
<stop stop-color="#FFE23A"/>
<stop offset="0.9861" stop-color="#004227"/>
</linearGradient>
<linearGradient id="paint6_linear_4305_577" x1="23.3804" y1="53.0062" x2="90.9235" y2="83.7639" gradientUnits="userSpaceOnUse">
<stop stop-color="#004B14"/>
<stop offset="0.7095" stop-color="#0C498D"/>
<stop offset="1" stop-color="#005667"/>
</linearGradient>
<linearGradient id="paint7_linear_4305_577" x1="20.8255" y1="44.6732" x2="13.8303" y2="56.2923" gradientUnits="userSpaceOnUse">
<stop stop-color="#004B14"/>
<stop offset="0.7095" stop-color="#0C498D"/>
<stop offset="1" stop-color="#005667"/>
</linearGradient>
<clipPath id="clip0_4305_577">
<rect width="87" height="115" fill="white"/>
</clipPath>
</defs>
</svg>
